<svg width="35" height="21" viewBox="0 0 35 21" fill="none" xmlns="http://www.w3.org/2000/svg">
<path fill-rule="evenodd" clip-rule="evenodd" d="M0.346069 3.08221C0.346069 1.70572 1.46194 0.589844 2.83844 0.589844H32.3537C33.7302 0.589844 34.8461 1.70572 34.8461 3.08221C34.8461 4.45871 33.7302 5.57458 32.3537 5.57458H2.83844C1.46194 5.57458 0.346069 4.45871 0.346069 3.08221ZM8.34607 10.5068C8.34607 9.13034 9.46194 8.01447 10.8384 8.01447H32.3537C33.7302 8.01447 34.8461 9.13034 34.8461 10.5068C34.8461 11.8833 33.7302 12.9992 32.3537 12.9992H10.8384C9.46194 12.9992 8.34607 11.8833 8.34607 10.5068ZM6.06793 16.0149C4.69143 16.0149 3.57556 17.1308 3.57556 18.5073C3.57556 19.8838 4.69143 20.9996 6.06793 20.9996H32.3538C33.7303 20.9996 34.8461 19.8838 34.8461 18.5073C34.8461 17.1308 33.7303 16.0149 32.3538 16.0149H6.06793Z" fill="black"/>
</svg>
