<svg width="45" height="12" viewBox="0 0 45 12" fill="none" xmlns="http://www.w3.org/2000/svg">
<path d="M4.5 10C6.70914 10 8.5 8.20914 8.5 6C8.5 3.79086 6.70914 2 4.5 2C2.29086 2 0.5 3.79086 0.5 6C0.5 8.20914 2.29086 10 4.5 10Z" fill="#E4E4E4"/>
<path d="M22.5 10C24.7091 10 26.5 8.20914 26.5 6C26.5 3.79086 24.7091 2 22.5 2C20.2909 2 18.5 3.79086 18.5 6C18.5 8.20914 20.2909 10 22.5 10Z" fill="#2DBB54"/>
<path d="M40.5 10C42.7091 10 44.5 8.20914 44.5 6C44.5 3.79086 42.7091 2 40.5 2C38.2909 2 36.5 3.79086 36.5 6C36.5 8.20914 38.2909 10 40.5 10Z" fill="#E4E4E4"/>
</svg>
