<svg width="702" height="166" viewBox="0 0 702 166" fill="none" xmlns="http://www.w3.org/2000/svg">
<g filter="url(#filter0_d)">
<rect x="24" y="22.9308" width="654" height="117" rx="16" fill="white"/>
</g>
<path d="M276.076 84.9308C275.86 84.9308 275.68 84.8588 275.536 84.7148C275.392 84.5468 275.32 84.3548 275.32 84.1388C275.32 84.0188 275.344 83.9108 275.392 83.8148L283.708 65.1668H272.944C272.68 65.1668 272.452 65.0828 272.26 64.9148C272.092 64.7228 272.008 64.4948 272.008 64.2308V60.6308C272.008 60.3668 272.092 60.1508 272.26 59.9828C272.452 59.8148 272.68 59.7308 272.944 59.7308H289.756C290.044 59.7308 290.272 59.8148 290.44 59.9828C290.608 60.1508 290.692 60.3668 290.692 60.6308V63.8348C290.692 64.3388 290.56 64.8788 290.296 65.4548L281.98 84.0668C281.716 84.6428 281.296 84.9308 280.72 84.9308H276.076ZM308.845 85.2908C306.541 85.2908 304.597 84.9428 303.013 84.2468C301.429 83.5508 300.241 82.6028 299.449 81.4028C298.681 80.2028 298.297 78.8588 298.297 77.3708C298.297 76.0988 298.609 74.9588 299.233 73.9508C299.881 72.9188 300.733 72.1148 301.789 71.5388C300.949 70.9868 300.301 70.2908 299.845 69.4508C299.413 68.6108 299.197 67.6508 299.197 66.5708C299.197 65.2028 299.545 63.9788 300.241 62.8988C300.961 61.7948 302.041 60.9308 303.481 60.3068C304.921 59.6828 306.709 59.3708 308.845 59.3708C311.989 59.3708 314.365 60.0308 315.973 61.3508C317.605 62.6708 318.421 64.3988 318.421 66.5348C318.421 68.7188 317.581 70.3868 315.901 71.5388C316.981 72.0668 317.833 72.8468 318.457 73.8788C319.105 74.9108 319.429 76.0868 319.429 77.4068C319.429 78.8948 319.033 80.2388 318.241 81.4388C317.449 82.6148 316.249 83.5508 314.641 84.2468C313.057 84.9428 311.125 85.2908 308.845 85.2908ZM308.845 69.7388C309.901 69.7148 310.765 69.4388 311.437 68.9108C312.109 68.3828 312.445 67.6988 312.445 66.8588C312.445 65.9948 312.109 65.2988 311.437 64.7708C310.765 64.2428 309.901 63.9788 308.845 63.9788C307.789 63.9788 306.925 64.2428 306.253 64.7708C305.581 65.2988 305.245 65.9948 305.245 66.8588C305.245 67.7228 305.581 68.4188 306.253 68.9468C306.925 69.4748 307.789 69.7388 308.845 69.7388ZM308.845 80.6828C310.021 80.6828 310.993 80.3828 311.761 79.7828C312.529 79.1828 312.913 78.3788 312.913 77.3708C312.913 76.3628 312.529 75.5708 311.761 74.9948C310.993 74.3948 310.021 74.0948 308.845 74.0948C307.669 74.0948 306.685 74.3948 305.893 74.9948C305.125 75.5708 304.741 76.3628 304.741 77.3708C304.741 78.3788 305.125 79.1828 305.893 79.7828C306.685 80.3828 307.669 80.6828 308.845 80.6828Z" fill="#1D957F"/>
<path d="M266.39 108.931C266.316 108.931 266.25 108.905 266.192 108.854C266.14 108.795 266.115 108.729 266.115 108.656V101.506C266.115 101.425 266.14 101.359 266.192 101.308C266.25 101.256 266.316 101.231 266.39 101.231H269.47C270.408 101.231 271.145 101.447 271.681 101.88C272.223 102.312 272.495 102.943 272.495 103.772C272.495 104.593 272.227 105.213 271.692 105.631C271.156 106.041 270.416 106.247 269.47 106.247H268.161V108.656C268.161 108.736 268.131 108.802 268.073 108.854C268.021 108.905 267.955 108.931 267.875 108.931H266.39ZM269.415 104.729C269.737 104.729 269.99 104.648 270.174 104.487C270.357 104.318 270.449 104.072 270.449 103.75C270.449 103.449 270.361 103.211 270.185 103.035C270.016 102.851 269.759 102.76 269.415 102.76H268.128V104.729H269.415ZM276.652 108.931C276.593 108.931 276.538 108.909 276.487 108.865C276.443 108.813 276.421 108.758 276.421 108.7C276.421 108.656 276.424 108.623 276.432 108.601L279.017 101.539C279.039 101.451 279.086 101.377 279.16 101.319C279.233 101.26 279.328 101.231 279.446 101.231H281.074C281.191 101.231 281.286 101.26 281.36 101.319C281.433 101.377 281.481 101.451 281.503 101.539L284.077 108.601L284.099 108.7C284.099 108.758 284.073 108.813 284.022 108.865C283.978 108.909 283.923 108.931 283.857 108.931H282.504C282.328 108.931 282.21 108.854 282.152 108.7L281.723 107.578H278.786L278.368 108.7C278.309 108.854 278.188 108.931 278.005 108.931H276.652ZM281.283 105.994L280.26 103.09L279.237 105.994H281.283ZM289.311 108.931C289.237 108.931 289.171 108.905 289.113 108.854C289.061 108.795 289.036 108.729 289.036 108.656V101.506C289.036 101.425 289.061 101.359 289.113 101.308C289.171 101.256 289.237 101.231 289.311 101.231H290.785C290.865 101.231 290.931 101.256 290.983 101.308C291.041 101.359 291.071 101.425 291.071 101.506V108.656C291.071 108.736 291.041 108.802 290.983 108.854C290.931 108.905 290.865 108.931 290.785 108.931H289.311ZM289.355 100.681C289.237 100.681 289.179 100.622 289.179 100.505C289.179 100.446 289.197 100.398 289.234 100.362L290.202 99.1848C290.275 99.0968 290.337 99.0418 290.389 99.0198C290.44 98.9905 290.513 98.9758 290.609 98.9758H292.149C292.215 98.9758 292.266 98.9978 292.303 99.0418C292.339 99.0785 292.358 99.1298 292.358 99.1958C292.358 99.2471 292.339 99.2911 292.303 99.3278L290.84 100.527C290.774 100.578 290.711 100.618 290.653 100.648C290.594 100.67 290.517 100.681 290.422 100.681H289.355ZM299.543 109.041C298.847 109.041 298.249 108.938 297.75 108.733C297.252 108.527 296.874 108.26 296.617 107.93C296.368 107.592 296.236 107.226 296.221 106.83C296.221 106.771 296.243 106.72 296.287 106.676C296.339 106.624 296.397 106.599 296.463 106.599H297.849C297.937 106.599 298.007 106.617 298.058 106.654C298.117 106.683 298.176 106.731 298.234 106.797C298.33 106.987 298.484 107.145 298.696 107.27C298.909 107.394 299.191 107.457 299.543 107.457C299.961 107.457 300.28 107.391 300.5 107.259C300.72 107.127 300.83 106.947 300.83 106.72C300.83 106.558 300.772 106.426 300.654 106.324C300.544 106.221 300.368 106.129 300.126 106.049C299.884 105.968 299.525 105.876 299.048 105.774C298.168 105.59 297.508 105.323 297.068 104.971C296.636 104.611 296.419 104.102 296.419 103.442C296.419 102.994 296.544 102.595 296.793 102.243C297.043 101.891 297.398 101.616 297.86 101.418C298.322 101.22 298.861 101.121 299.477 101.121C300.115 101.121 300.669 101.231 301.138 101.451C301.608 101.671 301.963 101.949 302.205 102.287C302.455 102.617 302.587 102.943 302.601 103.266C302.601 103.332 302.579 103.387 302.535 103.431C302.491 103.475 302.436 103.497 302.37 103.497H300.918C300.83 103.497 300.757 103.482 300.698 103.453C300.647 103.423 300.599 103.376 300.555 103.31C300.511 103.141 300.39 102.998 300.192 102.881C300.002 102.763 299.763 102.705 299.477 102.705C299.147 102.705 298.894 102.763 298.718 102.881C298.542 102.998 298.454 103.17 298.454 103.398C298.454 103.552 298.502 103.68 298.597 103.783C298.7 103.885 298.861 103.981 299.081 104.069C299.309 104.149 299.631 104.234 300.049 104.322C300.731 104.446 301.274 104.604 301.677 104.795C302.088 104.978 302.389 105.22 302.579 105.521C302.77 105.814 302.865 106.184 302.865 106.632C302.865 107.123 302.722 107.552 302.436 107.919C302.158 108.278 301.765 108.557 301.259 108.755C300.761 108.945 300.189 109.041 299.543 109.041ZM308.311 108.931C308.238 108.931 308.172 108.905 308.113 108.854C308.062 108.795 308.036 108.729 308.036 108.656V101.506C308.036 101.425 308.062 101.359 308.113 101.308C308.172 101.256 308.238 101.231 308.311 101.231H313.448C313.529 101.231 313.595 101.256 313.646 101.308C313.697 101.359 313.723 101.425 313.723 101.506V102.54C313.723 102.613 313.697 102.679 313.646 102.738C313.595 102.789 313.529 102.815 313.448 102.815H309.939V104.3H313.206C313.287 104.3 313.353 104.329 313.404 104.388C313.455 104.439 313.481 104.505 313.481 104.586V105.543C313.481 105.616 313.455 105.682 313.404 105.741C313.353 105.792 313.287 105.818 313.206 105.818H309.939V107.347H313.536C313.617 107.347 313.683 107.372 313.734 107.424C313.785 107.475 313.811 107.541 313.811 107.622V108.656C313.811 108.729 313.785 108.795 313.734 108.854C313.683 108.905 313.617 108.931 313.536 108.931H308.311ZM322.003 109.041C321.306 109.041 320.708 108.938 320.21 108.733C319.711 108.527 319.333 108.26 319.077 107.93C318.827 107.592 318.695 107.226 318.681 106.83C318.681 106.771 318.703 106.72 318.747 106.676C318.798 106.624 318.857 106.599 318.923 106.599H320.309C320.397 106.599 320.466 106.617 320.518 106.654C320.576 106.683 320.635 106.731 320.694 106.797C320.789 106.987 320.943 107.145 321.156 107.27C321.368 107.394 321.651 107.457 322.003 107.457C322.421 107.457 322.74 107.391 322.96 107.259C323.18 107.127 323.29 106.947 323.29 106.72C323.29 106.558 323.231 106.426 323.114 106.324C323.004 106.221 322.828 106.129 322.586 106.049C322.344 105.968 321.984 105.876 321.508 105.774C320.628 105.59 319.968 105.323 319.528 104.971C319.095 104.611 318.879 104.102 318.879 103.442C318.879 102.994 319.003 102.595 319.253 102.243C319.502 101.891 319.858 101.616 320.32 101.418C320.782 101.22 321.321 101.121 321.937 101.121C322.575 101.121 323.128 101.231 323.598 101.451C324.067 101.671 324.423 101.949 324.665 102.287C324.914 102.617 325.046 102.943 325.061 103.266C325.061 103.332 325.039 103.387 324.995 103.431C324.951 103.475 324.896 103.497 324.83 103.497H323.378C323.29 103.497 323.216 103.482 323.158 103.453C323.106 103.423 323.059 103.376 323.015 103.31C322.971 103.141 322.85 102.998 322.652 102.881C322.461 102.763 322.223 102.705 321.937 102.705C321.607 102.705 321.354 102.763 321.178 102.881C321.002 102.998 320.914 103.17 320.914 103.398C320.914 103.552 320.961 103.68 321.057 103.783C321.159 103.885 321.321 103.981 321.541 104.069C321.768 104.149 322.091 104.234 322.509 104.322C323.191 104.446 323.733 104.604 324.137 104.795C324.547 104.978 324.848 105.22 325.039 105.521C325.229 105.814 325.325 106.184 325.325 106.632C325.325 107.123 325.182 107.552 324.896 107.919C324.617 108.278 324.225 108.557 323.719 108.755C323.22 108.945 322.648 109.041 322.003 109.041Z" fill="black"/>
<path d="M107.697 84.9308C107.433 84.9308 107.205 84.8468 107.013 84.6788C106.845 84.5108 106.761 84.2948 106.761 84.0308V81.4748C106.761 80.7548 107.061 80.1668 107.661 79.7108L111.405 76.0388C113.589 74.3588 115.245 73.0508 116.373 72.1148C117.501 71.1788 118.353 70.3268 118.929 69.5588C119.505 68.7908 119.793 68.0588 119.793 67.3628C119.793 65.4668 118.857 64.5188 116.985 64.5188C116.001 64.5188 115.245 64.8188 114.717 65.4188C114.189 65.9948 113.841 66.7268 113.673 67.6148C113.529 68.1668 113.121 68.4428 112.449 68.4428H107.949C107.733 68.4428 107.553 68.3708 107.409 68.2268C107.265 68.0828 107.193 67.9028 107.193 67.6868C107.241 66.1508 107.661 64.7468 108.453 63.4748C109.269 62.1788 110.409 61.1588 111.873 60.4148C113.361 59.6468 115.065 59.2628 116.985 59.2628C119.001 59.2628 120.729 59.5868 122.169 60.2348C123.609 60.8828 124.701 61.7948 125.445 62.9708C126.189 64.1468 126.561 65.5148 126.561 67.0748C126.561 68.7548 126.033 70.2908 124.977 71.6828C123.945 73.0508 122.361 74.5388 120.225 76.1468L116.913 79.4948H126.165C126.429 79.4948 126.645 79.5788 126.813 79.7468C127.005 79.9148 127.101 80.1308 127.101 80.3948V84.0308C127.101 84.2948 127.005 84.5108 126.813 84.6788C126.645 84.8468 126.429 84.9308 126.165 84.9308H107.697ZM136.763 84.9308C136.499 84.9308 136.283 84.8468 136.115 84.6788C135.947 84.5108 135.863 84.2948 135.863 84.0308V67.1108C135.863 66.8468 135.947 66.6308 136.115 66.4628C136.283 66.2948 136.499 66.2108 136.763 66.2108H140.687C140.951 66.2108 141.167 66.2948 141.335 66.4628C141.503 66.6308 141.587 66.8468 141.587 67.1108V68.3348C142.139 67.6148 142.871 67.0268 143.783 66.5708C144.719 66.0908 145.763 65.8508 146.915 65.8508C149.555 65.8508 151.379 66.8828 152.387 68.9468C152.963 68.0348 153.767 67.2908 154.799 66.7148C155.831 66.1388 156.935 65.8508 158.111 65.8508C160.079 65.8508 161.675 66.5228 162.899 67.8668C164.147 69.1868 164.771 71.1668 164.771 73.8068V84.0308C164.771 84.2708 164.687 84.4868 164.519 84.6788C164.351 84.8468 164.135 84.9308 163.871 84.9308H159.695C159.431 84.9308 159.203 84.8468 159.011 84.6788C158.843 84.5108 158.759 84.2948 158.759 84.0308V74.0588C158.759 72.8588 158.507 71.9948 158.003 71.4668C157.523 70.9388 156.863 70.6748 156.023 70.6748C155.255 70.6748 154.619 70.9508 154.115 71.5028C153.611 72.0308 153.359 72.8828 153.359 74.0588V84.0308C153.359 84.2708 153.275 84.4868 153.107 84.6788C152.939 84.8468 152.723 84.9308 152.459 84.9308H148.283C148.019 84.9308 147.803 84.8468 147.635 84.6788C147.467 84.5108 147.383 84.2948 147.383 84.0308V74.0588C147.383 72.8828 147.119 72.0308 146.591 71.5028C146.087 70.9508 145.439 70.6748 144.647 70.6748C143.879 70.6748 143.231 70.9508 142.703 71.5028C142.199 72.0308 141.947 72.8708 141.947 74.0228V84.0308C141.947 84.2708 141.863 84.4868 141.695 84.6788C141.527 84.8468 141.311 84.9308 141.047 84.9308H136.763Z" fill="#1D957F"/>
<path d="M97.1418 109.041C96.1078 109.041 95.2975 108.788 94.7108 108.282C94.1315 107.776 93.8418 107.013 93.8418 105.994V101.506C93.8418 101.425 93.8675 101.359 93.9188 101.308C93.9775 101.256 94.0435 101.231 94.1168 101.231H95.5358C95.6165 101.231 95.6825 101.256 95.7338 101.308C95.7925 101.359 95.8218 101.425 95.8218 101.506V105.983C95.8218 106.459 95.9318 106.819 96.1518 107.061C96.3791 107.295 96.7055 107.413 97.1308 107.413C97.5488 107.413 97.8715 107.292 98.0988 107.05C98.3261 106.808 98.4398 106.452 98.4398 105.983V101.506C98.4398 101.425 98.4655 101.359 98.5168 101.308C98.5755 101.256 98.6415 101.231 98.7148 101.231H100.145C100.225 101.231 100.291 101.256 100.343 101.308C100.394 101.359 100.42 101.425 100.42 101.506V105.994C100.42 107.013 100.126 107.776 99.5398 108.282C98.9605 108.788 98.1611 109.041 97.1418 109.041ZM108.82 109.041C108.123 109.041 107.525 108.938 107.027 108.733C106.528 108.527 106.15 108.26 105.894 107.93C105.644 107.592 105.512 107.226 105.498 106.83C105.498 106.771 105.52 106.72 105.564 106.676C105.615 106.624 105.674 106.599 105.74 106.599H107.126C107.214 106.599 107.283 106.617 107.335 106.654C107.393 106.683 107.452 106.731 107.511 106.797C107.606 106.987 107.76 107.145 107.973 107.27C108.185 107.394 108.468 107.457 108.82 107.457C109.238 107.457 109.557 107.391 109.777 107.259C109.997 107.127 110.107 106.947 110.107 106.72C110.107 106.558 110.048 106.426 109.931 106.324C109.821 106.221 109.645 106.129 109.403 106.049C109.161 105.968 108.801 105.876 108.325 105.774C107.445 105.59 106.785 105.323 106.345 104.971C105.912 104.611 105.696 104.102 105.696 103.442C105.696 102.994 105.82 102.595 106.07 102.243C106.319 101.891 106.675 101.616 107.137 101.418C107.599 101.22 108.138 101.121 108.754 101.121C109.392 101.121 109.945 101.231 110.415 101.451C110.884 101.671 111.24 101.949 111.482 102.287C111.731 102.617 111.863 102.943 111.878 103.266C111.878 103.332 111.856 103.387 111.812 103.431C111.768 103.475 111.713 103.497 111.647 103.497H110.195C110.107 103.497 110.033 103.482 109.975 103.453C109.923 103.423 109.876 103.376 109.832 103.31C109.788 103.141 109.667 102.998 109.469 102.881C109.278 102.763 109.04 102.705 108.754 102.705C108.424 102.705 108.171 102.763 107.995 102.881C107.819 102.998 107.731 103.17 107.731 103.398C107.731 103.552 107.778 103.68 107.874 103.783C107.976 103.885 108.138 103.981 108.358 104.069C108.585 104.149 108.908 104.234 109.326 104.322C110.008 104.446 110.55 104.604 110.954 104.795C111.364 104.978 111.665 105.22 111.856 105.521C112.046 105.814 112.142 106.184 112.142 106.632C112.142 107.123 111.999 107.552 111.713 107.919C111.434 108.278 111.042 108.557 110.536 108.755C110.037 108.945 109.465 109.041 108.82 109.041ZM120.546 109.041C119.512 109.041 118.702 108.788 118.115 108.282C117.536 107.776 117.246 107.013 117.246 105.994V101.506C117.246 101.425 117.272 101.359 117.323 101.308C117.382 101.256 117.448 101.231 117.521 101.231H118.94C119.021 101.231 119.087 101.256 119.138 101.308C119.197 101.359 119.226 101.425 119.226 101.506V105.983C119.226 106.459 119.336 106.819 119.556 107.061C119.784 107.295 120.11 107.413 120.535 107.413C120.953 107.413 121.276 107.292 121.503 107.05C121.731 106.808 121.844 106.452 121.844 105.983V101.506C121.844 101.425 121.87 101.359 121.921 101.308C121.98 101.256 122.046 101.231 122.119 101.231H123.549C123.63 101.231 123.696 101.256 123.747 101.308C123.799 101.359 123.824 101.425 123.824 101.506V105.994C123.824 107.013 123.531 107.776 122.944 108.282C122.365 108.788 121.566 109.041 120.546 109.041ZM128.741 108.931C128.683 108.931 128.628 108.909 128.576 108.865C128.532 108.813 128.51 108.758 128.51 108.7C128.51 108.656 128.514 108.623 128.521 108.601L131.106 101.539C131.128 101.451 131.176 101.377 131.249 101.319C131.323 101.26 131.418 101.231 131.535 101.231H133.163C133.281 101.231 133.376 101.26 133.449 101.319C133.523 101.377 133.57 101.451 133.592 101.539L136.166 108.601L136.188 108.7C136.188 108.758 136.163 108.813 136.111 108.865C136.067 108.909 136.012 108.931 135.946 108.931H134.593C134.417 108.931 134.3 108.854 134.241 108.7L133.812 107.578H130.875L130.457 108.7C130.399 108.854 130.278 108.931 130.094 108.931H128.741ZM133.372 105.994L132.349 103.09L131.326 105.994H133.372ZM141.4 108.931C141.327 108.931 141.261 108.905 141.202 108.854C141.151 108.795 141.125 108.729 141.125 108.656V101.506C141.125 101.425 141.151 101.359 141.202 101.308C141.261 101.256 141.327 101.231 141.4 101.231H144.392C145.353 101.231 146.101 101.451 146.636 101.891C147.179 102.323 147.45 102.939 147.45 103.739C147.45 104.252 147.329 104.688 147.087 105.048C146.845 105.407 146.512 105.682 146.086 105.873L147.593 108.579C147.615 108.623 147.626 108.663 147.626 108.7C147.626 108.758 147.601 108.813 147.549 108.865C147.505 108.909 147.454 108.931 147.395 108.931H145.932C145.72 108.931 145.569 108.832 145.481 108.634L144.227 106.214H143.105V108.656C143.105 108.736 143.076 108.802 143.017 108.854C142.966 108.905 142.9 108.931 142.819 108.931H141.4ZM144.37 104.652C144.708 104.652 144.964 104.571 145.14 104.41C145.316 104.241 145.404 104.01 145.404 103.717C145.404 103.423 145.316 103.192 145.14 103.024C144.972 102.848 144.715 102.76 144.37 102.76H143.105V104.652H144.37ZM153.076 108.931C153.002 108.931 152.936 108.905 152.878 108.854C152.826 108.795 152.801 108.729 152.801 108.656V101.506C152.801 101.425 152.826 101.359 152.878 101.308C152.936 101.256 153.002 101.231 153.076 101.231H154.55C154.63 101.231 154.696 101.256 154.748 101.308C154.806 101.359 154.836 101.425 154.836 101.506V108.656C154.836 108.736 154.806 108.802 154.748 108.854C154.696 108.905 154.63 108.931 154.55 108.931H153.076ZM163.583 109.041C162.549 109.041 161.735 108.788 161.141 108.282C160.547 107.776 160.232 107.031 160.195 106.049C160.188 105.836 160.184 105.521 160.184 105.103C160.184 104.677 160.188 104.358 160.195 104.146C160.232 103.178 160.551 102.433 161.152 101.913C161.761 101.385 162.571 101.121 163.583 101.121C164.595 101.121 165.406 101.385 166.014 101.913C166.623 102.433 166.942 103.178 166.971 104.146C166.986 104.571 166.993 104.89 166.993 105.103C166.993 105.308 166.986 105.623 166.971 106.049C166.935 107.031 166.619 107.776 166.025 108.282C165.431 108.788 164.617 109.041 163.583 109.041ZM163.583 107.457C163.987 107.457 164.306 107.336 164.54 107.094C164.782 106.852 164.911 106.481 164.925 105.983C164.94 105.557 164.947 105.257 164.947 105.081C164.947 104.89 164.94 104.589 164.925 104.179C164.911 103.68 164.782 103.31 164.54 103.068C164.298 102.826 163.979 102.705 163.583 102.705C163.187 102.705 162.868 102.826 162.626 103.068C162.392 103.31 162.263 103.68 162.241 104.179C162.234 104.384 162.23 104.685 162.23 105.081C162.23 105.469 162.234 105.77 162.241 105.983C162.263 106.481 162.392 106.852 162.626 107.094C162.861 107.336 163.18 107.457 163.583 107.457ZM175.209 109.041C174.513 109.041 173.915 108.938 173.416 108.733C172.918 108.527 172.54 108.26 172.283 107.93C172.034 107.592 171.902 107.226 171.887 106.83C171.887 106.771 171.909 106.72 171.953 106.676C172.005 106.624 172.063 106.599 172.129 106.599H173.515C173.603 106.599 173.673 106.617 173.724 106.654C173.783 106.683 173.842 106.731 173.9 106.797C173.996 106.987 174.15 107.145 174.362 107.27C174.575 107.394 174.857 107.457 175.209 107.457C175.627 107.457 175.946 107.391 176.166 107.259C176.386 107.127 176.496 106.947 176.496 106.72C176.496 106.558 176.438 106.426 176.32 106.324C176.21 106.221 176.034 106.129 175.792 106.049C175.55 105.968 175.191 105.876 174.714 105.774C173.834 105.59 173.174 105.323 172.734 104.971C172.302 104.611 172.085 104.102 172.085 103.442C172.085 102.994 172.21 102.595 172.459 102.243C172.709 101.891 173.064 101.616 173.526 101.418C173.988 101.22 174.527 101.121 175.143 101.121C175.781 101.121 176.335 101.231 176.804 101.451C177.274 101.671 177.629 101.949 177.871 102.287C178.121 102.617 178.253 102.943 178.267 103.266C178.267 103.332 178.245 103.387 178.201 103.431C178.157 103.475 178.102 103.497 178.036 103.497H176.584C176.496 103.497 176.423 103.482 176.364 103.453C176.313 103.423 176.265 103.376 176.221 103.31C176.177 103.141 176.056 102.998 175.858 102.881C175.668 102.763 175.429 102.705 175.143 102.705C174.813 102.705 174.56 102.763 174.384 102.881C174.208 102.998 174.12 103.17 174.12 103.398C174.12 103.552 174.168 103.68 174.263 103.783C174.366 103.885 174.527 103.981 174.747 104.069C174.975 104.149 175.297 104.234 175.715 104.322C176.397 104.446 176.94 104.604 177.343 104.795C177.754 104.978 178.055 105.22 178.245 105.521C178.436 105.814 178.531 106.184 178.531 106.632C178.531 107.123 178.388 107.552 178.102 107.919C177.824 108.278 177.431 108.557 176.925 108.755C176.427 108.945 175.855 109.041 175.209 109.041Z" fill="black"/>
<path d="M431.27 84.9308C431.03 84.9308 430.814 84.8468 430.622 84.6788C430.454 84.4868 430.37 84.2708 430.37 84.0308V66.8948L425.438 70.6748C425.27 70.8188 425.09 70.8908 424.898 70.8908C424.634 70.8908 424.394 70.7468 424.178 70.4588L422.054 67.6868C421.934 67.4948 421.874 67.3148 421.874 67.1468C421.874 66.8108 422.018 66.5588 422.306 66.3908L430.586 59.9828C430.85 59.8148 431.138 59.7308 431.45 59.7308H435.95C436.214 59.7308 436.43 59.8148 436.598 59.9828C436.766 60.1508 436.85 60.3668 436.85 60.6308V84.0308C436.85 84.2708 436.766 84.4868 436.598 84.6788C436.43 84.8468 436.214 84.9308 435.95 84.9308H431.27ZM456.436 85.2908C453.124 85.2668 450.616 84.3908 448.912 82.6628C447.208 80.9108 446.284 78.6188 446.14 75.7868C446.092 74.4908 446.068 73.3388 446.068 72.3308C446.068 71.2988 446.092 70.1108 446.14 68.7668C446.236 66.9668 446.668 65.3708 447.436 63.9788C448.228 62.5628 449.38 61.4468 450.892 60.6308C452.404 59.7908 454.252 59.3708 456.436 59.3708C459.676 59.3948 462.172 60.2708 463.924 61.9988C465.676 63.7268 466.624 65.9828 466.768 68.7668C466.816 70.1108 466.84 71.2988 466.84 72.3308C466.84 73.3388 466.816 74.4908 466.768 75.7868C466.6 78.6188 465.664 80.9108 463.96 82.6628C462.256 84.3908 459.748 85.2668 456.436 85.2908ZM456.436 80.0708C457.612 80.0708 458.488 79.6868 459.064 78.9188C459.664 78.1268 459.988 77.0228 460.036 75.6068C460.084 74.9108 460.108 73.7948 460.108 72.2588C460.108 70.7228 460.084 69.6308 460.036 68.9828C459.988 67.6148 459.676 66.5348 459.1 65.7428C458.524 64.9508 457.636 64.5428 456.436 64.5188C455.26 64.5428 454.372 64.9508 453.772 65.7428C453.196 66.5348 452.884 67.6148 452.836 68.9828C452.812 69.6308 452.8 70.7228 452.8 72.2588C452.8 73.7948 452.812 74.9108 452.836 75.6068C452.956 78.5828 454.156 80.0708 456.436 80.0708ZM475.367 87.6308C475.175 87.6308 475.007 87.5468 474.863 87.3788C474.719 87.2348 474.659 87.0548 474.683 86.8388L475.799 79.7828C475.847 79.4468 475.979 79.1588 476.195 78.9188C476.411 78.6788 476.711 78.5588 477.095 78.5588H481.307C481.499 78.5588 481.655 78.6308 481.775 78.7748C481.919 78.8948 481.991 79.0508 481.991 79.2428C481.991 79.4108 481.967 79.5428 481.919 79.6388L479.219 86.6228C479.075 86.9348 478.907 87.1748 478.715 87.3428C478.523 87.5348 478.247 87.6308 477.887 87.6308H475.367ZM500.513 85.2908C497.201 85.2668 494.693 84.3908 492.989 82.6628C491.285 80.9108 490.361 78.6188 490.217 75.7868C490.169 74.4908 490.145 73.3388 490.145 72.3308C490.145 71.2988 490.169 70.1108 490.217 68.7668C490.313 66.9668 490.745 65.3708 491.513 63.9788C492.305 62.5628 493.457 61.4468 494.969 60.6308C496.481 59.7908 498.329 59.3708 500.513 59.3708C503.753 59.3948 506.249 60.2708 508.001 61.9988C509.753 63.7268 510.701 65.9828 510.845 68.7668C510.893 70.1108 510.917 71.2988 510.917 72.3308C510.917 73.3388 510.893 74.4908 510.845 75.7868C510.677 78.6188 509.741 80.9108 508.037 82.6628C506.333 84.3908 503.825 85.2668 500.513 85.2908ZM500.513 80.0708C501.689 80.0708 502.565 79.6868 503.141 78.9188C503.741 78.1268 504.065 77.0228 504.113 75.6068C504.161 74.9108 504.185 73.7948 504.185 72.2588C504.185 70.7228 504.161 69.6308 504.113 68.9828C504.065 67.6148 503.753 66.5348 503.177 65.7428C502.601 64.9508 501.713 64.5428 500.513 64.5188C499.337 64.5428 498.449 64.9508 497.849 65.7428C497.273 66.5348 496.961 67.6148 496.913 68.9828C496.889 69.6308 496.877 70.7228 496.877 72.2588C496.877 73.7948 496.889 74.9108 496.913 75.6068C497.033 78.5828 498.233 80.0708 500.513 80.0708ZM530.021 85.2908C526.709 85.2668 524.201 84.3908 522.497 82.6628C520.793 80.9108 519.869 78.6188 519.725 75.7868C519.677 74.4908 519.653 73.3388 519.653 72.3308C519.653 71.2988 519.677 70.1108 519.725 68.7668C519.821 66.9668 520.253 65.3708 521.021 63.9788C521.813 62.5628 522.965 61.4468 524.477 60.6308C525.989 59.7908 527.837 59.3708 530.021 59.3708C533.261 59.3948 535.757 60.2708 537.509 61.9988C539.261 63.7268 540.209 65.9828 540.353 68.7668C540.401 70.1108 540.425 71.2988 540.425 72.3308C540.425 73.3388 540.401 74.4908 540.353 75.7868C540.185 78.6188 539.249 80.9108 537.545 82.6628C535.841 84.3908 533.333 85.2668 530.021 85.2908ZM530.021 80.0708C531.197 80.0708 532.073 79.6868 532.649 78.9188C533.249 78.1268 533.573 77.0228 533.621 75.6068C533.669 74.9108 533.693 73.7948 533.693 72.2588C533.693 70.7228 533.669 69.6308 533.621 68.9828C533.573 67.6148 533.261 66.5348 532.685 65.7428C532.109 64.9508 531.221 64.5428 530.021 64.5188C528.845 64.5428 527.957 64.9508 527.357 65.7428C526.781 66.5348 526.469 67.6148 526.421 68.9828C526.397 69.6308 526.385 70.7228 526.385 72.2588C526.385 73.7948 526.397 74.9108 526.421 75.6068C526.541 78.5828 527.741 80.0708 530.021 80.0708ZM559.53 85.2908C556.218 85.2668 553.71 84.3908 552.006 82.6628C550.302 80.9108 549.378 78.6188 549.234 75.7868C549.186 74.4908 549.162 73.3388 549.162 72.3308C549.162 71.2988 549.186 70.1108 549.234 68.7668C549.33 66.9668 549.762 65.3708 550.53 63.9788C551.322 62.5628 552.474 61.4468 553.986 60.6308C555.498 59.7908 557.346 59.3708 559.53 59.3708C562.77 59.3948 565.266 60.2708 567.018 61.9988C568.77 63.7268 569.718 65.9828 569.862 68.7668C569.91 70.1108 569.934 71.2988 569.934 72.3308C569.934 73.3388 569.91 74.4908 569.862 75.7868C569.694 78.6188 568.758 80.9108 567.054 82.6628C565.35 84.3908 562.842 85.2668 559.53 85.2908ZM559.53 80.0708C560.706 80.0708 561.582 79.6868 562.158 78.9188C562.758 78.1268 563.082 77.0228 563.13 75.6068C563.178 74.9108 563.202 73.7948 563.202 72.2588C563.202 70.7228 563.178 69.6308 563.13 68.9828C563.082 67.6148 562.77 66.5348 562.194 65.7428C561.618 64.9508 560.73 64.5428 559.53 64.5188C558.354 64.5428 557.466 64.9508 556.866 65.7428C556.29 66.5348 555.978 67.6148 555.93 68.9828C555.906 69.6308 555.894 70.7228 555.894 72.2588C555.894 73.7948 555.906 74.9108 555.93 75.6068C556.05 78.5828 557.25 80.0708 559.53 80.0708ZM586.303 83.7428C586.063 83.7428 585.847 83.6588 585.655 83.4908C585.487 83.2988 585.403 83.0828 585.403 82.8428V76.2548H578.995C578.731 76.2548 578.503 76.1708 578.311 76.0028C578.143 75.8348 578.059 75.6188 578.059 75.3548V72.7268C578.059 72.4628 578.143 72.2468 578.311 72.0788C578.503 71.8868 578.731 71.7908 578.995 71.7908H585.403V65.4188C585.403 65.1548 585.487 64.9388 585.655 64.7708C585.847 64.6028 586.063 64.5188 586.303 64.5188H589.255C589.519 64.5188 589.735 64.6028 589.903 64.7708C590.071 64.9388 590.155 65.1548 590.155 65.4188V71.7908H596.527C596.791 71.7908 597.007 71.8868 597.175 72.0788C597.343 72.2468 597.427 72.4628 597.427 72.7268V75.3548C597.427 75.6188 597.343 75.8348 597.175 76.0028C597.007 76.1708 596.791 76.2548 596.527 76.2548H590.155V82.8428C590.155 83.0828 590.071 83.2988 589.903 83.4908C589.735 83.6588 589.519 83.7428 589.255 83.7428H586.303Z" fill="#1D957F"/>
<path d="M425.365 108.931C425.291 108.931 425.225 108.905 425.167 108.854C425.115 108.795 425.09 108.729 425.09 108.656V101.506C425.09 101.425 425.115 101.359 425.167 101.308C425.225 101.256 425.291 101.231 425.365 101.231H430.502C430.582 101.231 430.648 101.256 430.7 101.308C430.751 101.359 430.777 101.425 430.777 101.506V102.54C430.777 102.613 430.751 102.679 430.7 102.738C430.648 102.789 430.582 102.815 430.502 102.815H426.993V104.3H430.26C430.34 104.3 430.406 104.329 430.458 104.388C430.509 104.439 430.535 104.505 430.535 104.586V105.543C430.535 105.616 430.509 105.682 430.458 105.741C430.406 105.792 430.34 105.818 430.26 105.818H426.993V107.347H430.59C430.67 107.347 430.736 107.372 430.788 107.424C430.839 107.475 430.865 107.541 430.865 107.622V108.656C430.865 108.729 430.839 108.795 430.788 108.854C430.736 108.905 430.67 108.931 430.59 108.931H425.365ZM435.778 108.931C435.712 108.931 435.653 108.909 435.602 108.865C435.558 108.813 435.536 108.758 435.536 108.7C435.536 108.648 435.551 108.604 435.58 108.568L437.978 105.004L435.756 101.594C435.734 101.55 435.723 101.506 435.723 101.462C435.723 101.403 435.745 101.352 435.789 101.308C435.833 101.256 435.888 101.231 435.954 101.231H437.549C437.637 101.231 437.71 101.253 437.769 101.297C437.828 101.341 437.883 101.396 437.934 101.462L439.243 103.453L440.574 101.462C440.669 101.308 440.798 101.231 440.959 101.231H442.477C442.536 101.231 442.587 101.256 442.631 101.308C442.682 101.352 442.708 101.403 442.708 101.462C442.708 101.513 442.693 101.557 442.664 101.594L440.431 104.993L442.851 108.568C442.873 108.597 442.884 108.641 442.884 108.7C442.884 108.758 442.862 108.813 442.818 108.865C442.774 108.909 442.719 108.931 442.653 108.931H441.014C440.86 108.931 440.732 108.857 440.629 108.711L439.177 106.599L437.736 108.711C437.655 108.857 437.531 108.931 437.362 108.931H435.778ZM448.125 108.931C448.052 108.931 447.986 108.905 447.927 108.854C447.876 108.795 447.85 108.729 447.85 108.656V101.506C447.85 101.425 447.876 101.359 447.927 101.308C447.986 101.256 448.052 101.231 448.125 101.231H451.205C452.144 101.231 452.881 101.447 453.416 101.88C453.959 102.312 454.23 102.943 454.23 103.772C454.23 104.593 453.962 105.213 453.427 105.631C452.892 106.041 452.151 106.247 451.205 106.247H449.896V108.656C449.896 108.736 449.867 108.802 449.808 108.854C449.757 108.905 449.691 108.931 449.61 108.931H448.125ZM451.15 104.729C451.473 104.729 451.726 104.648 451.909 104.487C452.092 104.318 452.184 104.072 452.184 103.75C452.184 103.449 452.096 103.211 451.92 103.035C451.751 102.851 451.495 102.76 451.15 102.76H449.863V104.729H451.15ZM459.628 108.931C459.555 108.931 459.489 108.905 459.43 108.854C459.379 108.795 459.353 108.729 459.353 108.656V101.506C459.353 101.425 459.379 101.359 459.43 101.308C459.489 101.256 459.555 101.231 459.628 101.231H464.765C464.846 101.231 464.912 101.256 464.963 101.308C465.015 101.359 465.04 101.425 465.04 101.506V102.54C465.04 102.613 465.015 102.679 464.963 102.738C464.912 102.789 464.846 102.815 464.765 102.815H461.256V104.3H464.523C464.604 104.3 464.67 104.329 464.721 104.388C464.773 104.439 464.798 104.505 464.798 104.586V105.543C464.798 105.616 464.773 105.682 464.721 105.741C464.67 105.792 464.604 105.818 464.523 105.818H461.256V107.347H464.853C464.934 107.347 465 107.372 465.051 107.424C465.103 107.475 465.128 107.541 465.128 107.622V108.656C465.128 108.729 465.103 108.795 465.051 108.854C465 108.905 464.934 108.931 464.853 108.931H459.628ZM470.724 108.931C470.65 108.931 470.584 108.905 470.526 108.854C470.474 108.795 470.449 108.729 470.449 108.656V101.506C470.449 101.425 470.474 101.359 470.526 101.308C470.584 101.256 470.65 101.231 470.724 101.231H473.716C474.676 101.231 475.424 101.451 475.96 101.891C476.502 102.323 476.774 102.939 476.774 103.739C476.774 104.252 476.653 104.688 476.411 105.048C476.169 105.407 475.835 105.682 475.41 105.873L476.917 108.579C476.939 108.623 476.95 108.663 476.95 108.7C476.95 108.758 476.924 108.813 476.873 108.865C476.829 108.909 476.777 108.931 476.719 108.931H475.256C475.043 108.931 474.893 108.832 474.805 108.634L473.551 106.214H472.429V108.656C472.429 108.736 472.399 108.802 472.341 108.854C472.289 108.905 472.223 108.931 472.143 108.931H470.724ZM473.694 104.652C474.031 104.652 474.288 104.571 474.464 104.41C474.64 104.241 474.728 104.01 474.728 103.717C474.728 103.423 474.64 103.192 474.464 103.024C474.295 102.848 474.038 102.76 473.694 102.76H472.429V104.652H473.694ZM484.018 108.931C483.945 108.931 483.879 108.905 483.82 108.854C483.769 108.795 483.743 108.729 483.743 108.656V102.958H481.785C481.712 102.958 481.646 102.932 481.587 102.881C481.536 102.822 481.51 102.756 481.51 102.683V101.506C481.51 101.425 481.536 101.359 481.587 101.308C481.646 101.256 481.712 101.231 481.785 101.231H487.703C487.784 101.231 487.85 101.256 487.901 101.308C487.952 101.359 487.978 101.425 487.978 101.506V102.683C487.978 102.763 487.952 102.829 487.901 102.881C487.85 102.932 487.784 102.958 487.703 102.958H485.745V108.656C485.745 108.729 485.719 108.795 485.668 108.854C485.617 108.905 485.551 108.931 485.47 108.931H484.018ZM496.076 109.041C495.042 109.041 494.228 108.788 493.634 108.282C493.04 107.776 492.724 107.031 492.688 106.049C492.68 105.836 492.677 105.521 492.677 105.103C492.677 104.677 492.68 104.358 492.688 104.146C492.724 103.178 493.043 102.433 493.645 101.913C494.253 101.385 495.064 101.121 496.076 101.121C497.088 101.121 497.898 101.385 498.507 101.913C499.115 102.433 499.434 103.178 499.464 104.146C499.478 104.571 499.486 104.89 499.486 105.103C499.486 105.308 499.478 105.623 499.464 106.049C499.427 107.031 499.112 107.776 498.518 108.282C497.924 108.788 497.11 109.041 496.076 109.041ZM496.076 107.457C496.479 107.457 496.798 107.336 497.033 107.094C497.275 106.852 497.403 106.481 497.418 105.983C497.432 105.557 497.44 105.257 497.44 105.081C497.44 104.89 497.432 104.589 497.418 104.179C497.403 103.68 497.275 103.31 497.033 103.068C496.791 102.826 496.472 102.705 496.076 102.705C495.68 102.705 495.361 102.826 495.119 103.068C494.884 103.31 494.756 103.68 494.734 104.179C494.726 104.384 494.723 104.685 494.723 105.081C494.723 105.469 494.726 105.77 494.734 105.983C494.756 106.481 494.884 106.852 495.119 107.094C495.353 107.336 495.672 107.457 496.076 107.457ZM507.702 109.041C507.005 109.041 506.407 108.938 505.909 108.733C505.41 108.527 505.032 108.26 504.776 107.93C504.526 107.592 504.394 107.226 504.38 106.83C504.38 106.771 504.402 106.72 504.446 106.676C504.497 106.624 504.556 106.599 504.622 106.599H506.008C506.096 106.599 506.165 106.617 506.217 106.654C506.275 106.683 506.334 106.731 506.393 106.797C506.488 106.987 506.642 107.145 506.855 107.27C507.067 107.394 507.35 107.457 507.702 107.457C508.12 107.457 508.439 107.391 508.659 107.259C508.879 107.127 508.989 106.947 508.989 106.72C508.989 106.558 508.93 106.426 508.813 106.324C508.703 106.221 508.527 106.129 508.285 106.049C508.043 105.968 507.683 105.876 507.207 105.774C506.327 105.59 505.667 105.323 505.227 104.971C504.794 104.611 504.578 104.102 504.578 103.442C504.578 102.994 504.702 102.595 504.952 102.243C505.201 101.891 505.557 101.616 506.019 101.418C506.481 101.22 507.02 101.121 507.636 101.121C508.274 101.121 508.827 101.231 509.297 101.451C509.766 101.671 510.122 101.949 510.364 102.287C510.613 102.617 510.745 102.943 510.76 103.266C510.76 103.332 510.738 103.387 510.694 103.431C510.65 103.475 510.595 103.497 510.529 103.497H509.077C508.989 103.497 508.915 103.482 508.857 103.453C508.805 103.423 508.758 103.376 508.714 103.31C508.67 103.141 508.549 102.998 508.351 102.881C508.16 102.763 507.922 102.705 507.636 102.705C507.306 102.705 507.053 102.763 506.877 102.881C506.701 102.998 506.613 103.17 506.613 103.398C506.613 103.552 506.66 103.68 506.756 103.783C506.858 103.885 507.02 103.981 507.24 104.069C507.467 104.149 507.79 104.234 508.208 104.322C508.89 104.446 509.432 104.604 509.836 104.795C510.246 104.978 510.547 105.22 510.738 105.521C510.928 105.814 511.024 106.184 511.024 106.632C511.024 107.123 510.881 107.552 510.595 107.919C510.316 108.278 509.924 108.557 509.418 108.755C508.919 108.945 508.347 109.041 507.702 109.041ZM522.881 108.931C522.808 108.931 522.742 108.905 522.683 108.854C522.632 108.795 522.606 108.729 522.606 108.656V101.506C522.606 101.425 522.632 101.359 522.683 101.308C522.742 101.256 522.808 101.231 522.881 101.231H524.069C524.245 101.231 524.374 101.311 524.454 101.473L526.39 104.938L528.326 101.473C528.407 101.311 528.535 101.231 528.711 101.231H529.888C529.969 101.231 530.035 101.256 530.086 101.308C530.145 101.359 530.174 101.425 530.174 101.506V108.656C530.174 108.736 530.145 108.802 530.086 108.854C530.035 108.905 529.969 108.931 529.888 108.931H528.579C528.499 108.931 528.429 108.905 528.37 108.854C528.319 108.802 528.293 108.736 528.293 108.656V104.531L527.061 106.83C526.966 106.998 526.838 107.083 526.676 107.083H526.104C526.009 107.083 525.932 107.061 525.873 107.017C525.815 106.973 525.763 106.91 525.719 106.83L524.476 104.531V108.656C524.476 108.729 524.451 108.795 524.399 108.854C524.348 108.905 524.282 108.931 524.201 108.931H522.881ZM536.061 108.931C535.987 108.931 535.921 108.905 535.863 108.854C535.811 108.795 535.786 108.729 535.786 108.656V101.506C535.786 101.425 535.811 101.359 535.863 101.308C535.921 101.256 535.987 101.231 536.061 101.231H541.198C541.278 101.231 541.344 101.256 541.396 101.308C541.447 101.359 541.473 101.425 541.473 101.506V102.54C541.473 102.613 541.447 102.679 541.396 102.738C541.344 102.789 541.278 102.815 541.198 102.815H537.689V104.3H540.956C541.036 104.3 541.102 104.329 541.154 104.388C541.205 104.439 541.231 104.505 541.231 104.586V105.543C541.231 105.616 541.205 105.682 541.154 105.741C541.102 105.792 541.036 105.818 540.956 105.818H537.689V107.347H541.286C541.366 107.347 541.432 107.372 541.484 107.424C541.535 107.475 541.561 107.541 541.561 107.622V108.656C541.561 108.729 541.535 108.795 541.484 108.854C541.432 108.905 541.366 108.931 541.286 108.931H536.061ZM547.156 108.931C547.083 108.931 547.017 108.905 546.958 108.854C546.907 108.795 546.881 108.729 546.881 108.656V101.506C546.881 101.425 546.907 101.359 546.958 101.308C547.017 101.256 547.083 101.231 547.156 101.231H550.016C551.094 101.231 551.93 101.487 552.524 102.001C553.118 102.514 553.43 103.258 553.459 104.234C553.467 104.446 553.47 104.729 553.47 105.081C553.47 105.433 553.467 105.711 553.459 105.917C553.423 106.936 553.118 107.695 552.546 108.194C551.982 108.685 551.157 108.931 550.071 108.931H547.156ZM550.016 107.347C550.5 107.347 550.856 107.233 551.083 107.006C551.311 106.771 551.432 106.401 551.446 105.895C551.461 105.682 551.468 105.407 551.468 105.07C551.468 104.732 551.461 104.461 551.446 104.256C551.432 103.764 551.3 103.401 551.05 103.167C550.808 102.932 550.445 102.815 549.961 102.815H548.861V107.347H550.016ZM559.1 108.931C559.027 108.931 558.961 108.905 558.902 108.854C558.851 108.795 558.825 108.729 558.825 108.656V101.506C558.825 101.425 558.851 101.359 558.902 101.308C558.961 101.256 559.027 101.231 559.1 101.231H560.574C560.655 101.231 560.721 101.256 560.772 101.308C560.831 101.359 560.86 101.425 560.86 101.506V108.656C560.86 108.736 560.831 108.802 560.772 108.854C560.721 108.905 560.655 108.931 560.574 108.931H559.1ZM569.619 109.041C568.57 109.041 567.749 108.788 567.155 108.282C566.568 107.768 566.256 107.028 566.22 106.06C566.212 105.862 566.209 105.539 566.209 105.092C566.209 104.637 566.212 104.307 566.22 104.102C566.256 103.148 566.575 102.415 567.177 101.902C567.778 101.381 568.592 101.121 569.619 101.121C570.264 101.121 570.843 101.231 571.357 101.451C571.87 101.663 572.273 101.971 572.567 102.375C572.867 102.771 573.021 103.236 573.029 103.772V103.794C573.029 103.852 573.003 103.904 572.952 103.948C572.908 103.984 572.856 104.003 572.798 104.003H571.313C571.217 104.003 571.144 103.984 571.093 103.948C571.041 103.904 570.997 103.827 570.961 103.717C570.858 103.343 570.697 103.082 570.477 102.936C570.257 102.782 569.967 102.705 569.608 102.705C568.742 102.705 568.295 103.189 568.266 104.157C568.258 104.355 568.255 104.659 568.255 105.07C568.255 105.48 568.258 105.792 568.266 106.005C568.295 106.973 568.742 107.457 569.608 107.457C569.967 107.457 570.26 107.38 570.488 107.226C570.715 107.064 570.873 106.804 570.961 106.445C570.99 106.335 571.03 106.261 571.082 106.225C571.133 106.181 571.21 106.159 571.313 106.159H572.798C572.864 106.159 572.919 106.181 572.963 106.225C573.014 106.269 573.036 106.324 573.029 106.39C573.021 106.925 572.867 107.394 572.567 107.798C572.273 108.194 571.87 108.502 571.357 108.722C570.843 108.934 570.264 109.041 569.619 109.041ZM581.401 109.041C580.367 109.041 579.553 108.788 578.959 108.282C578.365 107.776 578.05 107.031 578.013 106.049C578.006 105.836 578.002 105.521 578.002 105.103C578.002 104.677 578.006 104.358 578.013 104.146C578.05 103.178 578.369 102.433 578.97 101.913C579.579 101.385 580.389 101.121 581.401 101.121C582.413 101.121 583.224 101.385 583.832 101.913C584.441 102.433 584.76 103.178 584.789 104.146C584.804 104.571 584.811 104.89 584.811 105.103C584.811 105.308 584.804 105.623 584.789 106.049C584.753 107.031 584.437 107.776 583.843 108.282C583.249 108.788 582.435 109.041 581.401 109.041ZM581.401 107.457C581.805 107.457 582.124 107.336 582.358 107.094C582.6 106.852 582.729 106.481 582.743 105.983C582.758 105.557 582.765 105.257 582.765 105.081C582.765 104.89 582.758 104.589 582.743 104.179C582.729 103.68 582.6 103.31 582.358 103.068C582.116 102.826 581.797 102.705 581.401 102.705C581.005 102.705 580.686 102.826 580.444 103.068C580.21 103.31 580.081 103.68 580.059 104.179C580.052 104.384 580.048 104.685 580.048 105.081C580.048 105.469 580.052 105.77 580.059 105.983C580.081 106.481 580.21 106.852 580.444 107.094C580.679 107.336 580.998 107.457 581.401 107.457ZM593.027 109.041C592.331 109.041 591.733 108.938 591.234 108.733C590.736 108.527 590.358 108.26 590.101 107.93C589.852 107.592 589.72 107.226 589.705 106.83C589.705 106.771 589.727 106.72 589.771 106.676C589.823 106.624 589.881 106.599 589.947 106.599H591.333C591.421 106.599 591.491 106.617 591.542 106.654C591.601 106.683 591.66 106.731 591.718 106.797C591.814 106.987 591.968 107.145 592.18 107.27C592.393 107.394 592.675 107.457 593.027 107.457C593.445 107.457 593.764 107.391 593.984 107.259C594.204 107.127 594.314 106.947 594.314 106.72C594.314 106.558 594.256 106.426 594.138 106.324C594.028 106.221 593.852 106.129 593.61 106.049C593.368 105.968 593.009 105.876 592.532 105.774C591.652 105.59 590.992 105.323 590.552 104.971C590.12 104.611 589.903 104.102 589.903 103.442C589.903 102.994 590.028 102.595 590.277 102.243C590.527 101.891 590.882 101.616 591.344 101.418C591.806 101.22 592.345 101.121 592.961 101.121C593.599 101.121 594.153 101.231 594.622 101.451C595.092 101.671 595.447 101.949 595.689 102.287C595.939 102.617 596.071 102.943 596.085 103.266C596.085 103.332 596.063 103.387 596.019 103.431C595.975 103.475 595.92 103.497 595.854 103.497H594.402C594.314 103.497 594.241 103.482 594.182 103.453C594.131 103.423 594.083 103.376 594.039 103.31C593.995 103.141 593.874 102.998 593.676 102.881C593.486 102.763 593.247 102.705 592.961 102.705C592.631 102.705 592.378 102.763 592.202 102.881C592.026 102.998 591.938 103.17 591.938 103.398C591.938 103.552 591.986 103.68 592.081 103.783C592.184 103.885 592.345 103.981 592.565 104.069C592.793 104.149 593.115 104.234 593.533 104.322C594.215 104.446 594.758 104.604 595.161 104.795C595.572 104.978 595.873 105.22 596.063 105.521C596.254 105.814 596.349 106.184 596.349 106.632C596.349 107.123 596.206 107.552 595.92 107.919C595.642 108.278 595.249 108.557 594.743 108.755C594.245 108.945 593.673 109.041 593.027 109.041Z" fill="black"/>
<defs>
<filter id="filter0_d" x="0" y="0.930786" width="702" height="165" filterUnits="userSpaceOnUse" color-interpolation-filters="sRGB">
<feFlood flood-opacity="0" result="BackgroundImageFix"/>
<feColorMatrix in="SourceAlpha" type="matrix" values="0 0 0 0 0 0 0 0 0 0 0 0 0 0 0 0 0 0 127 0"/>
<feOffset dy="2"/>
<feGaussianBlur stdDeviation="12"/>
<feColorMatrix type="matrix" values="0 0 0 0 0.345098 0 0 0 0 0.494118 0 0 0 0 0.92549 0 0 0 0.15 0"/>
<feBlend mode="normal" in2="BackgroundImageFix" result="effect1_dropShadow"/>
<feBlend mode="normal" in="SourceGraphic" in2="effect1_dropShadow" result="shape"/>
</filter>
</defs>
</svg>
